<svg xmlns="http://www.w3.org/2000/svg" viewBox="0 0 64 64" width="256" height="256">
  <defs>
    <linearGradient id="g" x1="0%" y1="0%" x2="100%" y2="100%">
      <stop offset="0%" stop-color="#68d391"/>
      <stop offset="100%" stop-color="#63b3ed"/>
    </linearGradient>
  </defs>
  <circle cx="32" cy="32" r="30" fill="url(#g)"/>
  <g transform="translate(8,8) scale(2)" fill="#1a365d">
    <path d="M12 2L14.09 8.26L20 10L14.09 11.74L12 18L9.91 11.74L4 10L9.91 8.26L12 2Z"/>
    <path d="M19 14C17.34 14 16 15.34 16 17C16 18.66 17.34 20 19 20C20.66 20 22 18.66 22 17C22 15.34 20.66 14 19 14ZM17.5 17C17.5 16.17 18.17 15.5 19 15.5C19.83 15.5 20.5 16.17 20.5 17C20.5 17.83 19.83 18.5 19 18.5C18.17 18.5 17.5 17.83 17.5 17Z"/>
  </g>
</svg>
